<?xml version="1.0" encoding="UTF-8"?>
<svg id="Capa_1" data-name="Capa 1" xmlns="http://www.w3.org/2000/svg" xmlns:xlink="http://www.w3.org/1999/xlink" viewBox="0 0 400 400">
  <defs>
    <style>
      .cls-1 {
        fill: url(#linear-gradient);
      }

      .cls-1, .cls-2, .cls-3, .cls-4 {
        stroke-width: 0px;
      }

      .cls-2, .cls-4 {
        fill: #fff;
      }

      .cls-3 {
        fill: url(#linear-gradient-2);
      }

      .cls-4 {
        fill-rule: evenodd;
      }
    </style>
    <linearGradient id="linear-gradient" x1="1.01" y1="200" x2="401.01" y2="200" gradientUnits="userSpaceOnUse">
      <stop offset="0" stop-color="#ad7e1a"/>
      <stop offset="1" stop-color="#d7b46b"/>
    </linearGradient>
    <linearGradient id="linear-gradient-2" x1="62.46" y1="198.52" x2="339.28" y2="198.52" xlink:href="#linear-gradient"/>
  </defs>
  <rect class="cls-1" x="1.01" width="400" height="400"/>
  <g>
    <ellipse class="cls-2" cx="200.58" cy="198.36" rx="145.56" ry="141.16"/>
    <ellipse class="cls-3" cx="200.87" cy="198.52" rx="138.41" ry="134.23"/>
  </g>
  <g>
    <g>
      <path class="cls-4" d="m181.5,147.63l.04,8.44c-11.46-1.97-24.63.57-26.6,13.56.18-16.65,11-23.75,26.56-21.99"/>
      <path class="cls-4" d="m154.94,169.43c-1.73,14.5,4.25,26.33,24.79,27.98,43.27,3.48,33.5-59.15,67.56-73.78l-6.34-2.17c-28.65,18.43-29.5,65.94-62.09,63.93-15.76-.97-23.17-7.23-23.92-15.96"/>
    </g>
    <path class="cls-2" d="m304.22,218.25v-2.72c0-.31-.26-.47-.78-.47h-6.42c-1.59,0-2.39.59-2.39,1.76v1.39c0,.51.23.9.7,1.17.48.27,1.05.4,1.72.4h4.81c1.57,0,2.35-.51,2.35-1.54m3.36.47c0,1.05-.42,1.9-1.26,2.55-.85.65-2.01.97-3.47.97h-6.42c-1.52,0-2.74-.28-3.66-.84-.99-.61-1.49-1.47-1.49-2.57v-2.5c0-1.14.44-2.01,1.33-2.62.89-.61,2.1-.92,3.64-.92h8.02c-.03-.79-.19-1.35-.48-1.68-.35-.39-1.06-.58-2.1-.58h-10.33v-2.42h10.79c3.63,0,5.44,1.2,5.44,3.58v7.02Zm-21-15.18v2.46h-3.21v-2.46h3.21Zm0,18.71h-3.36v-14.09h3.36v14.09Zm-10.35-4.35v-5.36c0-1.31-.91-1.96-2.73-1.96h-6.19c-.55,0-.82.2-.82.6v6.86c0,1.2.98,1.8,2.94,1.8h4.07c1.02,0,1.76-.19,2.22-.56.35-.22.51-.68.51-1.37Zm-9.74-14.38v4.67h8.02c1.56,0,2.8.34,3.71,1.02.91.68,1.37,1.58,1.37,2.69v6.58c0,2.51-1.71,3.77-5.12,3.77h-5.91c-1.51,0-2.8-.31-3.85-.92-1.06-.61-1.59-1.59-1.59-2.92v-14.88h3.36Zm-10.87,18.65v-8.6c0-1.18-.47-1.92-1.41-2.23-.35-.1-1.39-.15-3.13-.15-.75,0-1.36.25-1.83.74-.31.31-.46.88-.46,1.72v8.53h-3.32v-8.53c0-1.2-.41-1.95-1.23-2.26-.42-.13-1.45-.19-3.09-.19-1.75,0-2.62.8-2.62,2.39l.04,8.6h-3.36v-9.33c0-3.07,1.63-4.61,4.89-4.61h3.06c1,0,1.78.13,2.35.38.57.26,1.11.73,1.64,1.43.93-1.22,2.27-1.82,4.03-1.82h3c1.49,0,2.66.41,3.52,1.23.86.83,1.29,1.95,1.29,3.37v9.33h-3.36Zm-28.06-4.06v-5.72c0-.65-.26-1.13-.78-1.43-.42-.29-1.07-.43-1.95-.43h-3.99c-.92,0-1.6.14-2.04.43-.55.3-.82.77-.82,1.43v5.68c0,.61.27,1.07.82,1.37.42.26,1.02.39,1.79.39h4.47c.75,0,1.32-.13,1.71-.39.52-.3.78-.75.78-1.33Zm3.36.65c0,1.2-.55,2.12-1.64,2.76-.78.49-1.95.73-3.51.73h-5.83c-1.78,0-3.12-.31-4-.93-.89-.63-1.33-1.48-1.33-2.55v-7.03c0-1.22.56-2.17,1.68-2.85.81-.49,2.03-.73,3.64-.73h5.83c1.62,0,2.8.24,3.55.73,1.07.64,1.6,1.59,1.6,2.85v7.03Zm-20.03,3.49h-3.36v-18.74h3.36v18.74Zm-11-4.14v-5.72c0-.65-.26-1.13-.78-1.43-.42-.29-1.07-.43-1.95-.43h-3.99c-.92,0-1.6.14-2.04.43-.55.3-.82.77-.82,1.43v5.68c0,.61.27,1.07.82,1.37.42.26,1.02.39,1.79.39h4.47c.75,0,1.32-.13,1.71-.39.52-.3.78-.75.78-1.33Zm3.36.65c0,1.2-.55,2.12-1.64,2.76-.78.49-1.95.73-3.51.73h-5.83c-1.78,0-3.12-.31-4-.93-.89-.63-1.33-1.48-1.33-2.55v-7.03c0-1.22.56-2.17,1.68-2.85.81-.49,2.03-.73,3.64-.73h5.83c1.62,0,2.8.24,3.55.73,1.07.64,1.6,1.59,1.6,2.85v7.03Zm-19.18,3.49h-7.62c-3.65,0-5.48-1.24-5.48-3.73v-6.82c0-2.39,1.54-3.58,4.62-3.58h8.4v2.42h-7.01c-.98,0-1.67.13-2.06.38-.4.26-.59.74-.59,1.43v5.6c0,1.25.95,1.87,2.83,1.87h6.91v2.42Zm-17.09-11.68h-8.88c-.8,0-1.4.09-1.8.28-.55.25-.82.59-.82,1.03v.58c0,.97.9,1.46,2.69,1.46h4.39c1.27,0,2.32.31,3.14.92.82.61,1.23,1.39,1.23,2.34v1.73c0,.9-.41,1.69-1.24,2.38-.5.43-1.02.7-1.57.81-.44.1-1.1.15-1.96.15h-10.05v-2.42h9.15c.94,0,1.57-.18,1.89-.54.23-.27.35-.77.35-1.5,0-.97-.74-1.45-2.2-1.45h-4.15c-1.4,0-2.56-.27-3.47-.81-1.02-.6-1.53-1.38-1.53-2.34v-1.89c0-1.05.59-1.89,1.76-2.53.71-.42,1.81-.62,3.29-.62h9.78v2.42Zm-21.64,11.64v-8.94c0-1.44-.94-2.16-2.82-2.16h-3.74c-1.91,0-2.87.72-2.87,2.16v8.94h-3.36v-9.78c0-2.87,1.71-4.31,5.12-4.31h5.92c3.38,0,5.08,1.44,5.08,4.31v9.78h-3.32Zm-19.61-4.1v-5.72c0-.65-.26-1.13-.78-1.43-.42-.29-1.07-.43-1.95-.43h-3.99c-.92,0-1.6.14-2.04.43-.55.3-.82.77-.82,1.43v5.68c0,.61.27,1.07.82,1.37.42.26,1.02.39,1.79.39h4.47c.75,0,1.32-.13,1.71-.39.52-.3.78-.75.78-1.33Zm3.36.65c0,1.2-.55,2.12-1.64,2.76-.78.49-1.95.73-3.51.73h-5.83c-1.78,0-3.12-.31-4-.93-.89-.63-1.33-1.48-1.33-2.55v-7.03c0-1.22.56-2.17,1.68-2.85.81-.49,2.03-.73,3.64-.73h5.83c1.62,0,2.8.24,3.55.73,1.07.64,1.6,1.59,1.6,2.85v7.03Zm-19.18,3.49h-7.62c-3.65,0-5.48-1.24-5.48-3.73v-6.82c0-2.39,1.54-3.58,4.62-3.58h8.4v2.42h-7.01c-.98,0-1.67.13-2.06.38-.4.26-.59.74-.59,1.43v5.6c0,1.25.94,1.87,2.83,1.87h6.91v2.42Z"/>
    <g>
      <path class="cls-2" d="m105.83,236.72c-.31-1.54-1.57-2.32-3.11-2.32-2.65,0-3.77,2.14-3.77,4.41,0,2.49,1.12,4.57,3.78,4.57,1.95,0,3.07-1.34,3.21-3.15h1.48c-.28,2.72-2.01,4.37-4.81,4.37-3.45,0-5.13-2.5-5.13-5.68s1.84-5.74,5.26-5.74c2.32,0,4.23,1.22,4.58,3.54h-1.48Z"/>
      <path class="cls-2" d="m112.51,236.26c2.55,0,3.91,1.82,3.91,4.14s-1.35,4.12-3.91,4.12-3.91-1.82-3.91-4.12,1.35-4.14,3.91-4.14Zm0,7.12c1.39,0,2.51-1.07,2.51-2.98s-1.12-2.99-2.51-2.99-2.5,1.07-2.5,2.99,1.12,2.98,2.5,2.98Z"/>
      <path class="cls-2" d="m117.97,236.45h1.24v1.25h.03c.56-.98,1.46-1.44,2.61-1.44,2.12,0,2.77,1.19,2.77,2.89v5.19h-1.32v-5.34c0-.96-.62-1.59-1.63-1.59-1.6,0-2.38,1.05-2.38,2.47v4.46h-1.32v-7.9Z"/>
      <path class="cls-2" d="m127.43,241.85c.05,1.16,1.07,1.53,2.16,1.53.83,0,1.95-.18,1.95-1.18s-1.31-1.18-2.63-1.47c-1.31-.29-2.63-.72-2.63-2.23,0-1.59,1.6-2.25,3-2.25,1.77,0,3.19.55,3.3,2.47h-1.32c-.09-1.01-1-1.33-1.87-1.33-.79,0-1.71.21-1.71,1.01,0,.93,1.4,1.08,2.63,1.37,1.32.29,2.63.72,2.63,2.24,0,1.88-1.79,2.49-3.42,2.49-1.8,0-3.33-.72-3.41-2.67h1.32Z"/>
      <path class="cls-2" d="m141.06,244.34h-1.24v-1.25h-.03c-.56.98-1.46,1.44-2.61,1.44-2.12,0-2.77-1.19-2.77-2.89v-5.19h1.32v5.34c0,.96.62,1.59,1.63,1.59,1.6,0,2.38-1.05,2.38-2.47v-4.46h1.32v7.9Z"/>
      <path class="cls-2" d="m143.12,233.44h1.32v10.9h-1.32v-10.9Z"/>
      <path class="cls-2" d="m148.34,236.45h1.6v1.15h-1.6v4.9c0,.59.17.7,1,.7h.61v1.15h-1.01c-1.37,0-1.91-.28-1.91-1.73v-5.02h-1.37v-1.15h1.37v-2.37h1.32v2.37Z"/>
      <path class="cls-2" d="m154.87,236.26c2.55,0,3.91,1.82,3.91,4.14s-1.35,4.12-3.91,4.12-3.91-1.82-3.91-4.12,1.35-4.14,3.91-4.14Zm0,7.12c1.39,0,2.51-1.07,2.51-2.98s-1.12-2.99-2.51-2.99-2.5,1.07-2.5,2.99,1.12,2.98,2.5,2.98Z"/>
      <path class="cls-2" d="m160.28,236.45h1.24v1.67h.03c.64-1.27,1.53-1.89,2.96-1.85v1.37c-2.13,0-2.91,1.19-2.91,3.19v3.51h-1.32v-7.9Z"/>
      <path class="cls-2" d="m166.63,233.18h1.7l-2.04,2.18h-1l1.34-2.18Zm-1.04,11.16v-7.9h1.32v7.9h-1.32Z"/>
      <path class="cls-2" d="m176.09,244.31c-.23.14-.53.21-.95.21-.68,0-1.12-.37-1.12-1.22-.73.84-1.71,1.22-2.83,1.22-1.46,0-2.66-.64-2.66-2.21,0-1.79,1.35-2.17,2.72-2.43,1.46-.28,2.71-.18,2.71-1.16,0-1.13-.95-1.31-1.79-1.31-1.12,0-1.95.34-2.01,1.5h-1.32c.08-1.95,1.62-2.64,3.41-2.64,1.45,0,3.02.32,3.02,2.17v4.06c0,.61,0,.89.42.89.11,0,.23-.02.4-.08v1.01Zm-2.15-4.05c-.51.37-1.51.38-2.4.53-.87.15-1.62.46-1.62,1.42,0,.86.75,1.16,1.56,1.16,1.74,0,2.46-1.07,2.46-1.79v-1.33Z"/>
      <path class="cls-2" d="m188.83,244.34h-1.32v-1.07h-.03c-.44.87-1.46,1.25-2.57,1.25-2.47,0-3.7-1.93-3.7-4.15s1.21-4.11,3.67-4.11c.82,0,2.01.31,2.6,1.24h.03v-4.06h1.32v10.9Zm-3.73-.96c1.77,0,2.46-1.5,2.46-2.98,0-1.56-.72-2.99-2.54-2.99s-2.41,1.51-2.41,3.06.78,2.92,2.49,2.92Z"/>
      <path class="cls-2" d="m197.73,241.84c-.36,1.74-1.63,2.69-3.44,2.69-2.57,0-3.78-1.74-3.86-4.15,0-2.37,1.59-4.11,3.78-4.11,2.85,0,3.72,2.61,3.64,4.52h-6.02c-.05,1.37.75,2.6,2.5,2.6,1.09,0,1.85-.52,2.09-1.54h1.31Zm-1.28-2.2c-.06-1.24-1.01-2.23-2.32-2.23-1.38,0-2.21,1.02-2.3,2.23h4.62Z"/>
      <path class="cls-2" d="m211.58,236.72c-.31-1.54-1.57-2.32-3.11-2.32-2.65,0-3.77,2.14-3.77,4.41,0,2.49,1.12,4.57,3.78,4.57,1.95,0,3.07-1.34,3.21-3.15h1.48c-.28,2.72-2.01,4.37-4.81,4.37-3.45,0-5.13-2.5-5.13-5.68s1.84-5.74,5.26-5.74c2.32,0,4.23,1.22,4.58,3.54h-1.48Z"/>
      <path class="cls-2" d="m218.25,236.26c2.55,0,3.91,1.82,3.91,4.14s-1.35,4.12-3.91,4.12-3.91-1.82-3.91-4.12,1.35-4.14,3.91-4.14Zm0,7.12c1.39,0,2.51-1.07,2.51-2.98s-1.12-2.99-2.51-2.99-2.5,1.07-2.5,2.99,1.12,2.98,2.5,2.98Z"/>
      <path class="cls-2" d="m223.79,233.44h1.32v10.9h-1.32v-10.9Z"/>
      <path class="cls-2" d="m230.63,236.26c2.55,0,3.91,1.82,3.91,4.14s-1.35,4.12-3.91,4.12-3.91-1.82-3.91-4.12,1.35-4.14,3.91-4.14Zm0,7.12c1.39,0,2.51-1.07,2.51-2.98s-1.12-2.99-2.51-2.99-2.5,1.07-2.5,2.99,1.12,2.98,2.5,2.98Z"/>
      <path class="cls-2" d="m236.09,236.45h1.24v1.16h.03c.59-.89,1.49-1.34,2.6-1.34.98,0,1.88.38,2.21,1.34.54-.84,1.49-1.34,2.52-1.34,1.6,0,2.68.66,2.68,2.29v5.79h-1.32v-5.18c0-.98-.26-1.76-1.56-1.76s-2.1.79-2.1,2.02v4.92h-1.32v-5.18c0-1.02-.33-1.76-1.51-1.76-1.57,0-2.15,1.42-2.15,2.02v4.92h-1.32v-7.9Z"/>
      <path class="cls-2" d="m249.41,233.44h1.32v4.08h.03c.44-.87,1.46-1.25,2.57-1.25,2.47,0,3.7,1.93,3.7,4.15s-1.21,4.11-3.67,4.11c-.83,0-2.01-.31-2.6-1.24h-.03v1.05h-1.32v-10.9Zm3.73,3.97c-1.77,0-2.46,1.5-2.46,2.98,0,1.56.72,2.99,2.54,2.99s2.41-1.51,2.41-3.06-.78-2.92-2.49-2.92Z"/>
      <path class="cls-2" d="m259.99,235.03h-1.32v-1.59h1.32v1.59Zm-1.32,1.42h1.32v7.9h-1.32v-7.9Z"/>
      <path class="cls-2" d="m269.17,244.31c-.23.14-.53.21-.95.21-.68,0-1.12-.37-1.12-1.22-.73.84-1.71,1.22-2.83,1.22-1.46,0-2.66-.64-2.66-2.21,0-1.79,1.35-2.17,2.72-2.43,1.46-.28,2.71-.18,2.71-1.16,0-1.13-.95-1.31-1.79-1.31-1.12,0-1.95.34-2.01,1.5h-1.32c.08-1.95,1.62-2.64,3.41-2.64,1.45,0,3.02.32,3.02,2.17v4.06c0,.61,0,.89.42.89.11,0,.23-.02.4-.08v1.01Zm-2.15-4.05c-.51.37-1.51.38-2.4.53-.87.15-1.62.46-1.62,1.42,0,.86.75,1.16,1.56,1.16,1.74,0,2.46-1.07,2.46-1.79v-1.33Z"/>
      <path class="cls-2" d="m274.94,233.44h1.48v9.68h5.88v1.22h-7.36v-10.9Z"/>
      <path class="cls-2" d="m285.21,236.45h1.6v1.15h-1.6v4.9c0,.59.17.7,1,.7h.61v1.15h-1.01c-1.37,0-1.91-.28-1.91-1.73v-5.02h-1.37v-1.15h1.37v-2.37h1.32v2.37Z"/>
      <path class="cls-2" d="m295.46,244.34h-1.32v-1.07h-.03c-.44.87-1.46,1.25-2.57,1.25-2.47,0-3.7-1.93-3.7-4.15s1.21-4.11,3.67-4.11c.82,0,2.01.31,2.6,1.24h.03v-4.06h1.32v10.9Zm-3.73-.96c1.77,0,2.46-1.5,2.46-2.98,0-1.56-.72-2.99-2.54-2.99s-2.41,1.51-2.41,3.06.78,2.92,2.49,2.92Z"/>
      <path class="cls-2" d="m304.63,244.31c-.23.14-.53.21-.95.21-.68,0-1.12-.37-1.12-1.22-.73.84-1.71,1.22-2.83,1.22-1.46,0-2.66-.64-2.66-2.21,0-1.79,1.35-2.17,2.72-2.43,1.46-.28,2.71-.18,2.71-1.16,0-1.13-.95-1.31-1.79-1.31-1.12,0-1.95.34-2.01,1.5h-1.32c.08-1.95,1.62-2.64,3.41-2.64,1.45,0,3.02.32,3.02,2.17v4.06c0,.61,0,.89.42.89.11,0,.23-.02.4-.08v1.01Zm-2.15-4.05c-.51.37-1.51.38-2.4.53-.87.15-1.62.46-1.62,1.42,0,.86.75,1.16,1.56,1.16,1.74,0,2.46-1.07,2.46-1.79v-1.33Z"/>
      <path class="cls-2" d="m306.15,242.65h1.73v1.69h-1.73v-1.69Z"/>
    </g>
  </g>
</svg>